/* XPM */
static char * bottom_right_inactive_xpm[] = {
    "20 20 2 1",
    "   c None",
    "+  c #2E2A2A",
    "          ++++++++++",
    "          ++++++++++",
    "          ++++++++++",
    "          ++++++++++",
    "          ++++++++++",
    "          ++++++++++",
    "          ++++++++++",
    "          ++++++++++",
    "          ++++++++++",
    "          ++++++++++",
    "++++++++++++++++++++",
    "++++++++++++++++++++",
    "++++++++++++++++++++",
    "++++++++++++++++++++",
    "++++++++++++++++++++",
    "++++++++++++++++++++",
    "++++++++++++++++++++",
    "++++++++++++++++++++",
    "++++++++++++++++++++",
    "++++++++++++++++++++"
};
