/* XPM */
static char * close_active_xpm[] = {
    "21 21 2 1",
    "   c #2E2A2A",
    "+  c #D6D0D0",
    "                     ",
    "                     ",
    "                     ",
    "                     ",
    "    ++         ++    ",
    "   ++++       ++++   ",
    "    ++++     ++++    ",
    "     ++++   ++++     ",
    "      ++++ ++++      ",
    "       +++++++       ",
    "        +++++        ",
    "       +++++++       ",
    "      ++++ ++++      ",
    "     ++++   ++++     ",
    "    ++++     ++++    ",
    "   ++++       ++++   ",
    "    ++         ++    ",
    "                     ",
    "                     ",
    "                     ",
    "                     "
};
