/* XPM */
static char * hide_prelight_xpm[] = {
    "21 21 2 1",
    "   c #2E2A2A",
    "+  c #CABC89",
    "                     ",
    "                     ",
    "                     ",
    "                     ",
    "                     ",
    "                     ",
    "                     ",
    "                     ",
    "                     ",
    "                     ",
    "                     ",
    "                     ",
    "                     ",
    "                     ",
    "    +++++++++++++    ",
    "    +++++++++++++    ",
    "    +++++++++++++    ",
    "                     ",
    "                     ",
    "                     ",
    "                     "
};
